<?xml version="1.0" encoding="utf-8"?>
<!-- Generator: Adobe Illustrator 22.1.0, SVG Export Plug-In . SVG Version: 6.00 Build 0)  -->
<svg version="1.1" id="Layer_1" xmlns="http://www.w3.org/2000/svg" xmlns:xlink="http://www.w3.org/1999/xlink" x="0px" y="0px"
	 viewBox="0 0 225 78" style="enable-background:new 0 0 225 78;" xml:space="preserve">
<style type="text/css">
	.st0{fill:#61ad00;}
	.st1{fill:#1B365D;}
	.st2{fill:#C5DC6F;}
</style>
<title>Artboard 1 copy 13</title>
<g>
	<polygon class="st0" points="29.1,0.7 20.5,5.6 29.1,10.6 37.7,5.6 	"/>
	<polygon class="st0" points="19.6,6.2 11,11.2 19.6,16.1 28.2,11.2 	"/>
	<polygon class="st0" points="38.7,6.2 30.1,11.2 38.7,16.1 47.3,11.2 	"/>
	<polygon class="st0" points="48.2,11.7 39.6,16.7 48.2,21.6 56.8,16.7 	"/>
	<polygon class="st0" points="10,11.7 1.4,16.7 10,21.6 18.6,16.7 	"/>
	<polygon class="st1" points="0.9,49.5 9.5,54.5 9.5,44.5 0.9,39.6 	"/>
	<polygon class="st1" points="10.5,55 19.1,60 19.1,50.1 10.5,45.1 	"/>
	<polygon class="st1" points="0.9,38.5 9.5,43.4 9.5,33.5 0.9,28.6 	"/>
	<polygon class="st1" points="0.9,27.5 9.5,32.4 9.5,22.5 0.9,17.5 	"/>
	<polygon class="st1" points="20,60.6 28.7,65.5 28.7,55.6 20,50.6 	"/>
	<polygon class="st2" points="57.3,49.5 48.7,54.5 48.7,44.5 57.3,39.6 	"/>
	<polygon class="st2" points="47.8,55 39.2,60 39.2,50.1 47.8,45.1 	"/>
	<polygon class="st2" points="57.3,38.5 48.7,43.4 48.7,33.5 57.3,28.6 	"/>
	<polygon class="st2" points="57.3,27.5 48.7,32.4 48.7,22.5 57.3,17.5 	"/>
	<polygon class="st2" points="38.2,60.6 29.6,65.5 29.6,55.6 38.2,50.6 	"/>
	<polygon class="st0" points="29.1,54.8 37.7,49.8 29.1,44.8 20.5,49.8 	"/>
	<polygon class="st0" points="38.7,49.2 47.3,44.3 38.7,39.3 30.1,44.3 	"/>
	<polygon class="st0" points="19.6,49.2 28.2,44.3 19.6,39.3 11,44.3 	"/>
	<polygon class="st1" points="47.8,22.5 39.2,17.5 39.2,27.5 47.8,32.4 	"/>
	<polygon class="st1" points="38.2,17 29.6,12 29.6,21.9 38.2,26.9 	"/>
	<polygon class="st1" points="47.8,33.5 39.2,28.6 39.2,38.5 47.8,43.4 	"/>
	<polygon class="st2" points="10.5,22.5 19.1,17.5 19.1,27.5 10.5,32.4 	"/>
	<polygon class="st2" points="20,17 28.7,12 28.7,21.9 20,26.9 	"/>
	<polygon class="st2" points="10.5,33.5 19.1,28.6 19.1,38.5 10.5,43.4 	"/>
	<polygon class="st2" points="38.2,38.5 38.2,28.6 29.6,33.5 29.6,43.4 	"/>
	<polygon class="st1" points="20,38.5 28.6,43.4 28.6,33.5 20,28.6 	"/>
	<polygon class="st0" points="29.1,22.7 20.5,27.7 29.1,32.7 37.7,27.7 	"/>
	<path class="st1" d="M96.8,52.7L95,46.9H83l-1.9,5.8H70.9l14.2-39.2h7.4l14.2,39.2H96.8z M89.2,28.4l-3.5,10.5h6.8L89.2,28.4z"/>
	<path class="st1" d="M129.6,49.2c-5.3,5-13.7,5-19,0c-2.5-2.7-3.2-5.5-3.2-11.3s0.8-8.6,3.2-11.3c5.3-5,13.7-5,19,0
		c2.5,2.7,3.2,5.6,3.2,11.3S132.1,46.5,129.6,49.2z M122.5,31.7c-1.4-1.1-3.4-1.1-4.8,0c-1.2,1.2-1.3,3.3-1.3,6.2s0.2,5,1.3,6.2
		c1.4,1.1,3.4,1.1,4.8,0c1.2-1.2,1.3-3.2,1.3-6.2S123.6,32.9,122.5,31.7z"/>
	<path class="st1" d="M152.6,38.7h-5.9v14h-9.6V13.5h15.5c8.7,0,13.4,6.2,13.4,12.6S161.3,38.7,152.6,38.7z M152.1,22.2h-5.4v7.9
		h5.4c2.2,0.3,4.2-1.2,4.5-3.4c0.3-2.2-1.2-4.2-3.4-4.5C152.9,22.1,152.5,22.1,152.1,22.2z"/>
	<path class="st1" d="M182,53c-6,0-10.9-1.1-14.9-5.2l6.2-6.2c2,2,5.6,2.8,8.7,2.8c3.8,0,5.6-1.3,5.6-3.5c0.1-0.8-0.2-1.7-0.8-2.3
		c-0.7-0.6-1.6-1-2.6-1l-4.7-0.7c-3.5-0.5-6.1-1.7-7.9-3.5c-1.8-1.8-2.7-4.5-2.7-7.9c0-7.1,5.4-12.4,14.3-12.4
		c5.6,0,9.8,1.3,13.2,4.7l-6,6c-2.5-2.5-5.7-2.3-7.4-2.3c-3.4,0-4.7,1.9-4.7,3.6c0,0.7,0.3,1.3,0.8,1.8c0.7,0.7,1.7,1.1,2.7,1.2
		l4.7,0.7c3.5,0.5,6,1.6,7.7,3.2c2.1,2,2.9,5,2.9,8.6C197.1,48.7,190.2,53,182,53z"/>
	<path class="st1" d="M78.9,70.4h-5.6l-1.1,2.9h-1l4.4-12.1h0.8l4.4,12.1h-1L78.9,70.4z M73.5,69.5h5.1l-2.5-7.1L73.5,69.5z"/>
	<path class="st1" d="M85.5,65.8c-1.2,0-2.2,1.1-2.2,2.3c0,0.1,0,0.1,0,0.2v5h-0.9v-8.2h0.9v1.1c0.5-0.8,1.5-1.2,2.4-1.2
		c0.8-0.1,1.5,0.2,2,0.8L87,66.4C86.6,66,86.1,65.7,85.5,65.8z"/>
	<path class="st1" d="M89.3,71.2v-5.4h-1.1v-0.7h1.1v-2.6h0.9v2.6H92v0.7h-1.9v5.4c0,0.9,0.4,1.4,1.3,1.4H92v0.8h-0.8
		c-1.1,0-1.9-0.8-2-1.8C89.3,71.4,89.3,71.3,89.3,71.2z"/>
	<path class="st1" d="M103.2,72.5c-1.3,1.2-3.3,1.2-4.6,0c-0.8-0.9-1.1-2.1-1-3.3c-0.1-1.2,0.2-2.4,1-3.3c1.3-1.2,3.3-1.2,4.6,0
		c0.8,0.9,1.1,2.1,1,3.3C104.3,70.4,104,71.6,103.2,72.5z M102.6,66.5c-0.9-0.9-2.5-0.9-3.4,0c-0.6,0.8-0.9,1.7-0.8,2.7
		c-0.1,1,0.1,2,0.7,2.7c0.9,0.9,2.5,0.9,3.4,0c0.6-0.8,0.8-1.8,0.7-2.7C103.5,68.2,103.2,67.2,102.6,66.5L102.6,66.5z"/>
	<path class="st1" d="M107.4,73.3h-0.9v-7.6h-1.1v-0.7h1.1v-1.8c-0.1-1,0.6-2,1.7-2.1c0.1,0,0.2,0,0.3,0h0.8V62h-0.6
		c-0.9,0-1.3,0.5-1.3,1.4v1.7h1.9v0.7h-1.9L107.4,73.3z"/>
	<path class="st1" d="M119.6,68.2h-3.5v5.1h-0.9V61.2h4.4c1.9,0,3.5,1.6,3.5,3.5C123.1,66.6,121.5,68.2,119.6,68.2L119.6,68.2z
		 M119.5,62H116v5.3h3.4c1.7,0,2.8-0.8,2.8-2.7C122.3,62.8,121.2,62,119.5,62z"/>
	<path class="st1" d="M127.9,65.8c-1.2,0-2.2,1.1-2.2,2.3c0,0.1,0,0.1,0,0.2v5h-0.9v-8.2h0.9v1.1c0.5-0.8,1.5-1.2,2.4-1.2
		c0.8-0.1,1.5,0.2,2,0.8l-0.6,0.6C129.1,66,128.5,65.7,127.9,65.8z"/>
	<path class="st1" d="M135.9,72.5c-1.3,1.2-3.3,1.2-4.6,0c-0.8-0.9-1.1-2.1-1-3.3c-0.1-1.2,0.2-2.4,1-3.3c1.3-1.2,3.3-1.2,4.6,0
		c0.8,0.9,1.1,2.1,1,3.3C137,70.4,136.7,71.6,135.9,72.5z M135.3,66.5c-0.9-0.9-2.5-0.9-3.4,0c-0.6,0.8-0.8,1.8-0.7,2.7
		c-0.1,1,0.1,2,0.7,2.7c0.9,0.9,2.5,0.9,3.4,0c0.6-0.8,0.8-1.8,0.7-2.7C136.2,68.3,135.9,67.3,135.3,66.5L135.3,66.5z"/>
	<path class="st1" d="M144.3,72.7c-0.5,0.5-1.3,0.7-2,0.7c-1,0.1-1.9-0.4-2.4-1.2v1.1H139V61.2h0.9v5c0.5-0.8,1.5-1.3,2.4-1.2
		c0.7,0,1.5,0.2,2,0.7c0.8,1,1.2,2.2,1,3.5C145.5,70.4,145.1,71.7,144.3,72.7z M142.2,65.8c-2,0-2.3,1.7-2.3,3.4s0.3,3.4,2.3,3.4
		s2.3-1.7,2.3-3.4S144.2,65.8,142.2,65.8L142.2,65.8z"/>
	<path class="st1" d="M147.4,71.2v-10h0.9v10c0,0.9,0.3,1.4,1.3,1.4h0.6v0.8h-0.8C148,73.3,147.4,72.5,147.4,71.2z"/>
	<path class="st1" d="M154.5,72.6c0.9,0,1.7-0.3,2.3-1l0.6,0.5c-0.8,0.9-1.9,1.3-3,1.3c-2.3,0-3.5-1.5-3.5-4.2s1.2-4.2,3.3-4.2
		s3.3,1.5,3.3,4v0.4h-5.7C151.8,71.5,152.8,72.6,154.5,72.6z M156.3,67.1c-0.5-1.2-1.9-1.7-3.1-1.2c-0.5,0.2-0.9,0.6-1.2,1.2
		c-0.2,0.5-0.3,1-0.3,1.6h4.8C156.7,68.2,156.6,67.6,156.3,67.1L156.3,67.1z"/>
	<path class="st1" d="M170.5,68.2c0-1.6-0.8-2.4-2.3-2.4c-1.2-0.1-2.2,0.8-2.3,2c0,0.1,0,0.2,0,0.3v5.2H165v-5.1
		c0-1.6-0.8-2.4-2.3-2.4c-1.2-0.1-2.2,0.8-2.3,2c0,0.2,0,0.3,0,0.5v5.1h-0.9v-8.2h0.9v1c0.6-0.7,1.5-1.1,2.4-1.1
		c1.1-0.1,2.1,0.5,2.6,1.5c0.6-1,1.7-1.5,2.8-1.5c0.8,0,1.6,0.3,2.2,0.8c0.6,0.6,0.9,1.4,0.9,2.3v5.2h-0.8V68.2z"/>
	<path class="st1" d="M181.2,73.4c-1.5,0.1-3-0.5-4-1.6l0.6-0.7c0.9,1,2.1,1.5,3.4,1.4c1.9,0,3.1-0.9,3.1-2.5c0-0.6-0.2-1.3-0.7-1.7
		c-0.5-0.4-1.1-0.6-1.8-0.7l-1.4-0.2c-0.8-0.1-1.5-0.4-2.2-0.9c-0.7-0.5-1-1.4-1-2.2c0-2,1.4-3.3,3.8-3.3c1.3-0.1,2.5,0.4,3.5,1.3
		l-0.6,0.6c-0.8-0.8-1.8-1.2-2.9-1.1c-1.8,0-2.8,1-2.8,2.5c0,0.6,0.2,1.2,0.6,1.6c0.5,0.4,1.1,0.7,1.8,0.8l1.3,0.2
		c0.8,0,1.5,0.3,2.2,0.8c0.7,0.6,1.1,1.4,1,2.3C185.3,72.1,183.8,73.4,181.2,73.4z"/>
	<path class="st1" d="M192.3,72.5c-1.3,1.2-3.3,1.2-4.6,0c-0.8-0.9-1.1-2.1-1-3.3c-0.1-1.2,0.2-2.4,1-3.3c1.3-1.2,3.3-1.2,4.6,0
		c0.8,0.9,1.1,2.1,1,3.3C193.4,70.4,193.1,71.6,192.3,72.5z M191.7,66.5c-0.9-0.9-2.5-0.9-3.4,0c-0.6,0.8-0.8,1.8-0.7,2.7
		c-0.1,1,0.1,2,0.7,2.7c0.9,0.9,2.5,0.9,3.4,0c0.6-0.8,0.9-1.8,0.8-2.8C192.6,68.2,192.3,67.2,191.7,66.5L191.7,66.5z"/>
	<path class="st1" d="M195.2,71.2v-10h0.9v10c0,0.9,0.3,1.4,1.3,1.4h0.6v0.8h-0.8C195.8,73.3,195.2,72.5,195.2,71.2z"/>
	<path class="st1" d="M200.6,73.3l-3-8.2h1l2.5,7.2l2.5-7.2h1l-3,8.2L200.6,73.3z"/>
	<path class="st1" d="M205.8,61.2h1.1v1.1h-1.1V61.2z M205.9,65.1h0.9v8.2h-0.9V65.1z"/>
	<path class="st1" d="M215,68.2c0-1.6-0.8-2.4-2.3-2.4c-1.2-0.1-2.2,0.8-2.3,2c0,0.2,0,0.3,0,0.5v5.1h-0.9v-8.2h0.9v1
		c1-1.4,2.8-1.7,4.2-0.7c0.9,0.6,1.4,1.7,1.3,2.7v5.2H215V68.2z"/>
	<path class="st1" d="M220.7,77.3c-1,0-2-0.4-2.7-1.1l0.6-0.6c0.5,0.6,1.3,0.9,2.1,0.9c1.7,0,2.5-1.2,2.5-2.8v-1.5
		c-0.5,0.8-1.5,1.2-2.4,1.2c-0.7,0-1.5-0.2-2-0.7c-0.8-1-1.2-2.2-1-3.5c-0.1-1.3,0.3-2.5,1-3.5c0.5-0.5,1.3-0.7,2-0.7
		c1-0.1,1.9,0.4,2.4,1.2v-1.1h0.9v8.7c0.2,1.8-1.1,3.4-2.9,3.5C221,77.3,220.8,77.3,220.7,77.3z M220.9,65.8c-2,0-2.3,1.7-2.3,3.4
		s0.3,3.4,2.3,3.4s2.3-1.7,2.3-3.4S222.9,65.8,220.9,65.8L220.9,65.8z"/>
</g>
</svg>
