<?xml version="1.0" encoding="utf-8"?><svg version="1.1" id="Слой_1" xmlns="http://www.w3.org/2000/svg" xmlns:xlink="http://www.w3.org/1999/xlink" x="0px" y="0px" viewBox="0 0 108 21" style="enable-background:new 0 0 108 21" xml:space="preserve"><style type="text/css">.st0{fill:#22262E;}</style><g><g transform="translate(-124 -30)"><g><path class="st0" d="M137.2,41.6c-0.5,1.2-1.6,2.2-3.1,2.2c-1.8,0-3.3-1.5-3.3-3.3c0-1.8,1.5-3.3,3.3-3.3c1.4,0,2.6,0.9,3.1,2.2
				h6.7c-0.5-4.9-4.7-8.7-9.8-8.7c-5.4,0.2-9.8,4.5-9.8,9.9s4.4,9.7,9.8,9.7c5.1,0,9.3-3.8,9.8-8.7H137.2z"/></g></g><g transform="translate(-124 -30)"><g><path class="st0" d="M153.6,40.6c0-3.7,2.7-6.2,6.3-6.2c3.2,0,5.5,1.5,5.8,4.7H162c-0.2-1.2-0.9-1.9-2.1-1.9
				c-1.6,0-2.6,1.2-2.6,3.4v0.2c0,2.2,0.9,3.4,2.6,3.4c1.2,0,2.1-0.6,2.3-2h3.5c-0.2,3.2-2.6,4.8-5.8,4.8
				C155.7,47,153.6,44.5,153.6,40.6L153.6,40.6z"/></g></g><g transform="translate(-124 -30)"><g><path class="st0" d="M168.8,34.5h3.5v9.5h4.7v2.7h-8.2L168.8,34.5L168.8,34.5z"/></g></g><g transform="translate(-124 -30)"><g><path class="st0" d="M180.5,34.5h8.6v2.7H184v2.1h4v2.5h-4v2.3h5.3v2.7h-8.8L180.5,34.5L180.5,34.5z"/></g></g><g transform="translate(-124 -30)"><g><path class="st0" d="M197.4,40.2c1.2,0,1.8-0.5,1.8-1.5v-0.1c0-1-0.6-1.4-1.8-1.4h-1.2v3L197.4,40.2L197.4,40.2z M192.8,34.5h4.8
				c3.3,0,5.1,1.3,5.1,3.9v0.1c0,1.7-0.9,2.7-2.3,3.2l3,5.1h-3.7l-2.5-4.4h-0.9v4.4h-3.5C192.8,46.8,192.8,34.5,192.8,34.5z"/></g></g><g transform="translate(-124 -30)"><g><path class="st0" d="M206.6,34.5h3.6v4.8l3.7-4.8h3.7l-4.5,5.7l4.8,6.5h-4.1l-3.6-5.1v5.1h-3.6V34.5z"/></g></g><g transform="translate(-124 -30)"><g><path class="st0" d="M223.9,41.6l-4.1-7h3.9l2.1,4.1l2.1-4.1h3.4l-3.8,7v5.2h-3.6L223.9,41.6L223.9,41.6z"/></g></g></g></svg>