<?xml version="1.0" encoding="utf-8"?>
<!-- Generator: Adobe Illustrator 19.2.1, SVG Export Plug-In . SVG Version: 6.00 Build 0)  -->
<!DOCTYPE svg PUBLIC "-//W3C//DTD SVG 1.1//EN" "http://www.w3.org/Graphics/SVG/1.1/DTD/svg11.dtd">
<svg version="1.1" id="Layer_1" xmlns="http://www.w3.org/2000/svg" xmlns:xlink="http://www.w3.org/1999/xlink" x="0px" y="0px"
	 viewBox="0 0 180 40" style="enable-background:new 0 0 180 40;" xml:space="preserve">
<g>
	<g>
		
			<linearGradient id="SVGID_1_" gradientUnits="userSpaceOnUse" x1="51.2183" y1="31.7045" x2="51.2183" y2="12.602" gradientTransform="matrix(1 0 0 -1 0 42)">
			<stop  offset="0" style="stop-color:#FFFFFF"/>
			<stop  offset="1" style="stop-color:#D2D2D2"/>
		</linearGradient>
		<path style="fill:url(#SVGID_1_);" d="M60.3,20.2c0,0.1,0,0.3,0.1,0.5c0.1,0.2,0,0.3,0,0.5c0,0.8-0.1,1.6-0.4,2.2
			c-0.2,0.7-0.6,1.4-1.1,1.9c-0.4,0.6-1,1.1-1.5,1.6c-0.6,0.4-1.2,0.8-1.9,1.2s-1.4,0.6-2.2,0.8c-0.8,0.2-1.5,0.2-2.2,0.2
			c-0.7,0-1.4,0-2-0.1C48.4,29,47.8,29,47.2,29c-0.4,0-0.9,0-1.3,0.1s-0.8,0.2-1.1,0.4c-0.3-1.1-0.6-1.9-0.9-2.9
			c-0.3-0.9-0.6-1.6-0.9-2.2c-0.3-0.7-0.6-1.3-0.9-1.9c0.9,0.4,1.8,0.8,2.7,1.1c0.9,0.3,1.8,0.4,2.5,0.6c0.8,0.1,1.6,0.2,2.2,0.3
			c0.7,0.1,1.2,0.1,1.6,0.1c0.5,0,1,0,1.5-0.1s1.1-0.2,1.5-0.3c-0.1-0.2-0.2-0.3-0.4-0.4s-0.2-0.2-0.4-0.3c-0.1-0.1-0.3-0.2-0.4-0.2
			c-0.2-0.1-0.5-0.2-0.9-0.3c-0.4-0.1-0.8-0.2-1.3-0.3c-0.4-0.1-1-0.2-1.5-0.4c-0.5-0.1-1-0.3-1.6-0.5c-0.5-0.2-1-0.4-1.5-0.7
			c-0.5-0.3-0.9-0.5-1.3-0.8c-0.3-0.2-0.5-0.5-0.8-0.8s-0.4-0.6-0.4-0.9c-0.1-0.3-0.2-0.6-0.2-0.9c-0.1-0.3-0.1-0.6-0.1-0.9
			c-0.3,0.1-0.5,0.2-0.8,0.3c-0.2,0.1-0.4,0.1-0.5,0.2l-0.2,0.2c0.3-0.8,0.7-1.6,1.1-2.2c0.5-0.6,1.1-1.2,1.7-1.7
			c0.6-0.4,1.3-0.8,2-1.2c0.7-0.3,1.3-0.6,2-0.8c1.6-0.5,3.3-0.8,5.2-0.8c0.6,0,1.2,0,1.9-0.1c0.5-0.1,1.2-0.1,1.9-0.2
			c0.8-0.1,1.5-0.2,2.2-0.4c-0.2,0.4-0.4,0.8-0.6,1.2c-0.2,0.5-0.3,0.8-0.4,1.3C59.1,13.2,59,13.6,59,14c0,0.5-0.1,0.8-0.1,1.1
			c0,0.2,0,0.5,0,0.6c0,0.1,0,0.4,0,0.5c0,0.2,0,0.3,0.1,0.5c-1.4-0.6-2.6-1.1-3.9-1.3c-1.3-0.2-2.5-0.4-3.7-0.4
			c-0.4,0-0.8,0-1.1,0.1c-0.4,0.1-0.8,0.1-1.1,0.1c0.1,0.4,0.2,0.7,0.4,0.9c0.2,0.2,0.5,0.5,0.7,0.6s0.5,0.3,0.8,0.4
			c0.6,0.1,1.2,0.4,1.9,0.7c0.7,0.3,1.4,0.6,2,1c0.7,0.4,1.4,0.8,2,1.3c0.6,0.5,1.2,1.1,1.6,1.8c0.3-0.2,0.6-0.5,0.8-0.8
			C59.8,20.9,60.1,20.6,60.3,20.2z"/>
		
			<linearGradient id="SVGID_2_" gradientUnits="userSpaceOnUse" x1="71.8641" y1="31.75" x2="71.8641" y2="12.25" gradientTransform="matrix(1 0 0 -1 0 42)">
			<stop  offset="0" style="stop-color:#FFFFFF"/>
			<stop  offset="1" style="stop-color:#D2D2D2"/>
		</linearGradient>
		<path style="fill:url(#SVGID_2_);" d="M82.5,22.7c-0.4,0.2-0.7,0.4-1.1,0.5c-0.4,0.1-0.8,0.3-1,0.5c0.4,0.8,0.8,1.6,1.3,2.3
			s0.9,1.4,1.4,2.2c-1.3,0-2.5,0.2-3.6,0.4c-1.1,0.2-2.2,0.7-3.4,1.2c0.1-0.2,0.1-0.4,0.2-0.7c0-0.2,0-0.4,0-0.8
			c0-0.4-0.1-1-0.2-1.5c-0.1-0.5-0.2-1.1-0.4-1.7c-0.4,0.1-0.8,0.1-1.2,0.1c-0.4,0-0.8,0.1-1.2,0.1c-0.7,0-1.4-0.1-1.9-0.1
			c-0.6-0.1-1.3-0.3-1.8-0.5c-0.2,0.7-0.3,1.4-0.4,2.1c-0.2,0.8-0.2,1.4-0.4,2.2c-0.4-0.2-0.8-0.4-1.3-0.6c-0.4-0.1-0.9-0.3-1.4-0.4
			c-0.5-0.1-1.2-0.1-1.9-0.1c-0.5,0-1.1,0.1-1.7,0.1c-0.6,0.1-1.2,0.3-1.9,0.5c0.6-0.7,1.1-1.3,1.6-1.9c0.5-0.7,1-1.3,1.4-1.9
			c0.5-0.6,0.7-1.2,1.1-1.7c0.4-0.5,0.6-1,0.8-1.3c-0.2-0.3-0.5-0.6-0.6-1s-0.4-0.8-0.5-1.1c0.3,0.2,0.6,0.3,0.9,0.5
			c0.3,0.1,0.6,0.3,0.9,0.4l0,0c0.4-0.8,0.8-1.7,1.3-2.5s0.9-1.6,1.4-2.3c-0.1-0.2-0.2-0.5-0.4-0.9c-0.2-0.3-0.3-0.7-0.5-1
			c-0.1-0.4-0.4-0.7-0.6-1.1c-0.2-0.4-0.4-0.7-0.6-1c0.8,0.2,1.5,0.4,2.3,0.5c0.8,0.2,1.6,0.2,2.4,0.2c0.4-0.4,0.9-0.8,1.4-1.2
			s1-0.7,1.5-1c-0.2,0.4-0.4,0.7-0.5,1c-0.1,0.4-0.4,0.7-0.5,1.1c0.4,0,0.9-0.1,1.3-0.2c0.5-0.1,0.9-0.2,1.4-0.2
			c0.3,1.3,0.7,2.5,1,3.8s0.8,2.5,1.3,3.7c0.4-0.2,0.8-0.4,1.1-0.7c0.4-0.2,0.8-0.5,1.1-0.8c0.2,0.9,0.5,1.7,0.8,2.6
			C81.7,21.3,82.1,21.9,82.5,22.7z M74.3,21.1c-0.7-1.6-1.5-3.3-2.4-5c-0.3,0.8-0.5,1.6-0.8,2.5c-0.2,0.9-0.5,1.8-0.8,2.7
			c0.2,0,0.4,0,0.6,0c0.2,0,0.4,0,0.6,0c0.4,0,1,0,1.4-0.1C73.3,21.4,73.8,21.3,74.3,21.1z"/>
		
			<linearGradient id="SVGID_3_" gradientUnits="userSpaceOnUse" x1="93.9141" y1="31.7045" x2="93.9141" y2="12.602" gradientTransform="matrix(1 0 0 -1 0 42)">
			<stop  offset="0" style="stop-color:#FFFFFF"/>
			<stop  offset="1" style="stop-color:#D2D2D2"/>
		</linearGradient>
		<path style="fill:url(#SVGID_3_);" d="M103.1,20.2c0,0.1,0,0.3,0.1,0.5c0,0.2,0,0.3,0,0.5c0,0.8-0.1,1.6-0.4,2.2
			c-0.2,0.7-0.6,1.4-1,1.9c-0.4,0.6-1,1.1-1.5,1.6c-0.6,0.4-1.2,0.8-2,1.2c-0.7,0.3-1.4,0.6-2.2,0.8c-0.8,0.2-1.5,0.2-2.2,0.2
			c-0.7,0-1.4,0-2-0.1C91.3,29,90.6,29,90,29c-0.5,0-0.9,0-1.3,0.1s-0.8,0.2-1.1,0.4c-0.3-1.1-0.6-1.9-0.9-2.9
			c-0.3-0.8-0.6-1.6-0.9-2.2c-0.3-0.7-0.6-1.3-0.9-1.9c0.9,0.4,1.8,0.8,2.7,1.1c0.9,0.3,1.8,0.4,2.6,0.6c0.8,0.1,1.6,0.2,2.2,0.3
			c0.7,0.1,1.2,0.1,1.6,0.1c0.5,0,1,0,1.5-0.1c0.5-0.1,1-0.2,1.5-0.3c-0.1-0.2-0.2-0.3-0.4-0.4c-0.1-0.2-0.2-0.2-0.4-0.3
			c-0.1-0.1-0.3-0.2-0.4-0.2c-0.2-0.1-0.5-0.2-0.9-0.3c-0.4-0.1-0.8-0.2-1.3-0.3c-0.4-0.1-1-0.2-1.5-0.4c-0.5-0.1-1.1-0.3-1.6-0.5
			c-0.5-0.2-1-0.4-1.5-0.7c-0.5-0.3-0.9-0.5-1.3-0.8c-0.3-0.2-0.5-0.5-0.8-0.8c-0.2-0.3-0.4-0.6-0.4-0.9c-0.1-0.3-0.2-0.6-0.2-0.9
			c-0.1-0.3-0.1-0.6-0.1-0.9c-0.3,0.1-0.5,0.2-0.8,0.3c-0.2,0.1-0.4,0.1-0.5,0.2l-0.4,0.2c0.3-0.8,0.7-1.6,1.1-2.2
			c0.5-0.6,1-1.2,1.6-1.7c0.6-0.5,1.3-0.8,1.9-1.2c0.7-0.3,1.4-0.6,2-0.8c1.6-0.4,3.3-0.8,5.2-0.8c0.6,0,1.2,0,1.9-0.1
			c0.5-0.1,1.2-0.1,2-0.2c0.8-0.1,1.5-0.2,2.2-0.4c-0.2,0.4-0.5,0.8-0.6,1.2c-0.1,0.4-0.3,0.8-0.4,1.3c-0.1,0.4-0.1,0.8-0.1,1.3
			c0,0.4-0.1,0.8-0.1,1.1c0,0.2,0,0.4,0,0.6c0,0.2,0,0.4,0,0.5c0,0.1,0,0.3,0.1,0.5c-1.4-0.6-2.6-1.1-3.9-1.3
			c-1.3-0.2-2.5-0.4-3.7-0.4c-0.4,0-0.8,0-1.1,0.1c-0.4,0.1-0.8,0.1-1.1,0.1c0.1,0.4,0.2,0.7,0.5,0.9s0.4,0.5,0.7,0.6
			c0.2,0.1,0.5,0.3,0.8,0.4c0.6,0.1,1.2,0.4,1.9,0.7c0.7,0.2,1.3,0.6,2,1s1.4,0.8,2,1.4c0.6,0.5,1.2,1.1,1.7,1.8
			c0.3-0.2,0.6-0.5,0.8-0.8C102.6,20.9,102.9,20.6,103.1,20.2z"/>
		
			<linearGradient id="SVGID_4_" gradientUnits="userSpaceOnUse" x1="114.9141" y1="31.2162" x2="114.9141" y2="13.1813" gradientTransform="matrix(1 0 0 -1 0 42)">
			<stop  offset="0" style="stop-color:#FFFFFF"/>
			<stop  offset="1" style="stop-color:#D2D2D2"/>
		</linearGradient>
		<path style="fill:url(#SVGID_4_);" d="M112.6,28.5c-0.6-0.2-1.2-0.3-1.8-0.3c-0.6-0.1-1.2-0.1-1.8-0.1c-0.6,0-1.2,0-1.8,0.1
			c-0.6,0.1-1.2,0.1-1.9,0.3c0.7-1.7,1.1-3.3,1.5-5c0.4-1.7,0.5-3.5,0.5-5.2c0-1.1-0.1-2.2-0.2-3.3c-0.2-1.1-0.4-2.2-0.6-3.4
			c0.5,0.2,1,0.3,1.5,0.4c0.5,0.2,1,0.2,1.4,0.3c0.5,0.1,1,0.2,1.5,0.2c0.5,0.1,1,0.1,1.6,0.1c0.1,1.2,0.1,2.5,0.1,3.7
			c0,1.2,0.1,2.4,0.1,3.6c0.8-0.1,1.5-0.1,2.2-0.2c0.8-0.1,1.4-0.2,2.2-0.3c0.1-1.4,0.2-2.8,0.5-4.2c0.2-1.4,0.5-2.8,0.8-4.2
			c0.5,0.2,0.8,0.3,1.3,0.4c0.4,0.2,0.8,0.2,1.2,0.3c0.5,0.1,0.8,0.2,1.3,0.2c0.5,0.1,0.9,0.1,1.4,0.1c0.1,0,0.2,0,0.3,0
			c0.2,0,0.2,0,0.4,0c-0.5,1.1-0.9,2.1-1.3,3.2c-0.3,1.1-0.6,2.2-0.7,3.2c0.4-0.1,0.8-0.1,1.2-0.3c0.4-0.1,0.8-0.2,1.2-0.3
			c-0.1,0.5-0.2,1-0.2,1.6c0,0.5-0.1,1.1-0.1,1.6c0,0.5,0,1.1,0.1,1.7c0.1,0.6,0.1,1.1,0.2,1.6c-0.4,0-0.8,0-1.2-0.1
			c-0.4,0-0.8-0.1-1.1-0.1c0.1,0.7,0.2,1.4,0.4,2.1c0.1,0.7,0.4,1.4,0.6,2.1c-0.3,0-0.5-0.1-0.8-0.1c-0.2,0-0.5,0-0.8,0
			c-0.4,0-0.8,0-1.1,0.1c-0.4,0-0.8,0.1-1.1,0.2c-0.4,0.1-0.8,0.1-1.1,0.2s-0.8,0.2-1.1,0.3c-0.1-1-0.1-1.9-0.2-2.9
			c-0.1-1-0.1-1.9-0.1-2.9c-0.8-0.2-1.4-0.4-2.2-0.6c-0.7-0.2-1.4-0.4-2.1-0.8c0,1.1,0,2.2-0.1,3.4
			C112.6,26.2,112.6,27.3,112.6,28.5z"/>
		
			<linearGradient id="SVGID_5_" gradientUnits="userSpaceOnUse" x1="131.0766" y1="30.925" x2="131.0766" y2="13.525" gradientTransform="matrix(1 0 0 -1 0 42)">
			<stop  offset="0" style="stop-color:#FFFFFF"/>
			<stop  offset="1" style="stop-color:#D2D2D2"/>
		</linearGradient>
		<path style="fill:url(#SVGID_5_);" d="M134.3,11.1c-0.2,1.6-0.4,3.1-0.5,4.8c-0.1,1.7-0.2,3.2-0.2,4.9c0,1.3,0,2.5,0.1,3.7
			c0.1,1.2,0.1,2.4,0.3,3.6c-0.3,0-0.6-0.1-0.9-0.1c-0.3,0-0.6,0-0.9,0c-0.7,0-1.4,0.1-2.1,0.1c-0.7,0.1-1.4,0.2-2.2,0.4
			c0.2-1.3,0.5-2.7,0.6-4.1c0.2-1.3,0.2-2.8,0.2-4.2c0-1.2-0.1-2.5-0.1-3.7c-0.1-1.2-0.3-2.4-0.5-3.6c0.5-0.1,1-0.2,1.6-0.2
			c0.5-0.1,1.1-0.2,1.6-0.4c0.5-0.2,1-0.3,1.6-0.5C133.2,11.5,133.7,11.3,134.3,11.1z"/>
		
			<linearGradient id="SVGID_6_" gradientUnits="userSpaceOnUse" x1="146.474" y1="31.4433" x2="146.474" y2="13.0683" gradientTransform="matrix(1 0 0 -1 0 42)">
			<stop  offset="0" style="stop-color:#4DB3FF"/>
			<stop  offset="1" style="stop-color:#0092FF"/>
		</linearGradient>
		<path style="fill:url(#SVGID_6_);" d="M156.2,18.7c0.1,0.9,0.1,1.8-0.1,2.6c-0.2,0.8-0.5,1.6-1,2.4c-0.4,0.8-1,1.5-1.6,2.1
			c-0.7,0.6-1.4,1.2-2.2,1.6c-0.8,0.4-1.7,0.8-2.6,1.1c-0.9,0.2-1.8,0.4-2.8,0.4c-0.6,0-1.3-0.1-2-0.2c-0.7-0.2-1.3-0.4-1.9-0.8
			c-0.7,0.1-1.4,0.2-2.1,0.4c-0.8,0.1-1.5,0.4-2.2,0.7c0.7-2,1.2-4.1,1.6-6.2c0.4-2,0.6-4.1,0.6-6.2c-0.3,0.1-0.5,0.2-0.8,0.4
			c-0.3,0.2-0.5,0.3-0.8,0.5c0-0.2,0.1-0.4,0.1-0.6c0-0.1,0-0.4,0-0.6c0-0.9-0.1-1.8-0.4-2.6c-0.3-0.8-0.7-1.6-1.2-2.3
			c0.3-0.1,0.6-0.2,1-0.2c0.4-0.1,0.8-0.2,1.2-0.2c0.4-0.1,0.9-0.2,1.3-0.2c0.5-0.1,0.9-0.1,1.4-0.2c0.5-0.1,0.8-0.1,1.2-0.1
			s0.7,0,1,0c1.1,0,2.2,0.1,3.2,0.3c1,0.2,1.9,0.5,2.7,0.8c0.8,0.3,1.6,0.8,2.2,1.2c0.7,0.4,1.2,1,1.6,1.6c0.4,0.6,0.8,1.2,1.1,1.9
			c0.2,0.7,0.4,1.4,0.4,2c0,0.1,0,0.2,0,0.4c0,0.1,0,0.2,0,0.4c0.2-0.1,0.4-0.2,0.5-0.2S156.1,18.7,156.2,18.7z M151,19.5
			c-0.1-0.4-0.4-0.9-0.6-1.3c-0.3-0.4-0.6-0.7-0.9-1c-0.4-0.3-0.8-0.5-1.1-0.7c-0.4-0.2-0.8-0.4-1.2-0.5c-0.4-0.1-0.8-0.2-1.2-0.3
			c-0.4-0.1-0.8-0.1-1.1-0.2c-0.1,1.9-0.1,3.7-0.1,5.6c0,1.6,0,3.4,0.1,5c0.8-0.2,1.4-0.5,2.1-0.9c0.7-0.4,1.2-0.8,1.6-1.4
			c0.5-0.5,0.8-1.2,1.1-1.9s0.3-1.5,0.2-2.4c0.2,0,0.4,0,0.5,0C150.7,19.5,150.8,19.5,151,19.5z"/>
		
			<linearGradient id="SVGID_7_" gradientUnits="userSpaceOnUse" x1="168.7266" y1="30.6029" x2="168.7266" y2="13.1358" gradientTransform="matrix(1 0 0 -1 0 42)">
			<stop  offset="0" style="stop-color:#4DB3FF"/>
			<stop  offset="1" style="stop-color:#0092FF"/>
		</linearGradient>
		<path style="fill:url(#SVGID_7_);" d="M174.5,11.5c-0.3,0.3-0.6,0.5-0.8,0.8c-0.3,0.3-0.5,0.6-0.8,0.9c0.8,0.2,1.6,0.4,2.2,0.8
			c0.7,0.4,1.4,0.8,1.9,1.4c0.5,0.6,1,1.2,1.3,2c0.3,0.8,0.4,1.6,0.4,2.6c0,1-0.1,1.9-0.4,2.8c-0.3,0.8-0.8,1.6-1.3,2.2
			c-0.5,0.7-1.2,1.2-1.9,1.7c-0.8,0.4-1.6,0.9-2.4,1.2c-0.9,0.3-1.8,0.5-2.8,0.7c-1,0.1-1.9,0.2-2.9,0.2c-0.4,0-0.7,0-1.1,0
			s-0.8,0-1-0.1c-0.4,0-0.7-0.1-1-0.1c-0.3-0.1-0.5-0.1-0.8-0.2c0.3-0.2,0.5-0.4,0.8-0.7c0.2-0.2,0.5-0.4,0.6-0.7
			c-0.8-0.1-1.6-0.4-2.2-0.8c-0.7-0.4-1.4-0.8-1.9-1.3c-0.5-0.5-1-1.1-1.3-1.9c-0.3-0.8-0.5-1.6-0.5-2.5c0-1.1,0.1-2.1,0.5-3
			c0.4-0.9,0.8-1.6,1.5-2.3c0.6-0.7,1.4-1.3,2.2-1.8c0.8-0.5,1.7-0.9,2.7-1.2c1-0.3,2-0.5,3-0.7c1.1-0.1,2.1-0.2,3.2-0.2
			c0.4,0,0.9,0,1.3,0C173.5,11.5,174.1,11.5,174.5,11.5z M173.6,19c0-0.5-0.1-0.8-0.2-1.2c-0.1-0.4-0.2-0.7-0.4-1
			c-0.2-0.3-0.5-0.5-0.7-0.8c-0.2-0.2-0.5-0.4-0.8-0.5c-0.1,0.3-0.2,0.5-0.3,0.8c-0.1,0.3-0.1,0.5-0.3,0.8c-0.5-0.1-0.8-0.2-1.2-0.3
			s-0.8-0.1-1-0.1c-0.6,0-1.1,0.1-1.7,0.3c-0.6,0.2-1.1,0.5-1.6,0.9c-0.5,0.4-0.8,0.8-1.1,1.4c-0.3,0.5-0.5,1.1-0.5,1.8
			c0,0.4,0.1,0.7,0.1,1c0.1,0.3,0.2,0.6,0.5,0.9c0.1,0.3,0.4,0.6,0.7,0.8c0.2,0.3,0.5,0.5,0.8,0.8c0.1-0.3,0.2-0.6,0.2-1
			c0.1-0.3,0.1-0.7,0.1-1c0.5,0.2,1,0.4,1.4,0.5c0.4,0.1,0.9,0.2,1.3,0.2c0.6,0,1.2-0.1,1.7-0.3c0.5-0.2,1-0.5,1.5-0.9
			c0.4-0.4,0.8-0.8,1-1.4C173.5,20.4,173.6,19.7,173.6,19z"/>
	</g>
	<g>
		
			<linearGradient id="SVGID_8_" gradientUnits="userSpaceOnUse" x1="17.2758" y1="24.4605" x2="17.2758" y2="37.1225" gradientTransform="matrix(1 0 0 -1 0 42)">
			<stop  offset="0" style="stop-color:#4DB3FF"/>
			<stop  offset="1" style="stop-color:#0092FF"/>
		</linearGradient>
		<path style="fill:url(#SVGID_8_);" d="M17.3,16.9c-5.5,0-10,2.8-10-2.7s4.5-9.3,10-9.3s10,3.8,10,9.3S22.8,16.9,17.3,16.9z"/>
		<g>
			<path style="fill:#FFFFFF;" d="M19.3,2.9c0-1.1-0.9-2.4-2-2.4s-2,1.3-2,2.4"/>
			<path style="fill:#FFFFFF;" d="M17.4,39.5c2.4,0,4.4-1.7,5.2-4H12.1C12.9,37.8,15,39.5,17.4,39.5z"/>
			<ellipse id="leftEye_1_" style="fill:#FFFFFF;" cx="12.6" cy="12.8" rx="1.6" ry="2"/>
			<path style="fill:#FFFFFF;" d="M17.3,2.5c-6.6,0-11.9,5.3-11.9,11.9l0.8,13.1c0.4,3.6,2,6.4,5.5,6.8h11.2
				c3.6-0.4,5.2-3.2,5.6-6.8l0.8-13.1C29.3,7.9,23.9,2.5,17.3,2.5z M17.3,16.9c-5.5,0-10,2.8-10-2.7s4.5-9.3,10-9.3s10,3.8,10,9.3
				S22.8,16.9,17.3,16.9z"/>
			<ellipse id="leftEye_2_" style="fill:#FFFFFF;" cx="22.1" cy="12.8" rx="1.6" ry="2"/>
			<path style="fill:#FFFFFF;" d="M3.4,19.6L3.4,19.6c-0.7,0-1.2,0.5-1.2,1.1V32c0,0.6,0.5,1.1,1.1,1.1h0.1c0.6,0,1.1-0.5,1.1-1.1
				V20.8C4.6,20.2,4.1,19.6,3.4,19.6z"/>
			<circle style="fill:#FFFFFF;" cx="3.4" cy="31.9" r="2.4"/>
			<path style="fill:#FFFFFF;" d="M8.3,24h-3c-1.7,0-3.1-1.4-3.1-3.1v-0.2c0-1.7,1.3-3.1,3.1-3.1h3c1.7,0,3.1,1.3,3.1,3.1v0.2
				C11.4,22.6,10,24,8.3,24z"/>
			<path style="fill:#FFFFFF;" d="M31.3,19.6L31.3,19.6c-0.7,0-1.2,0.5-1.2,1.1V32c0,0.6,0.5,1.1,1.1,1.1h0.1c0.6,0,1.1-0.5,1.1-1.1
				V20.8C32.4,20.2,31.9,19.6,31.3,19.6z"/>
			<circle style="fill:#FFFFFF;" cx="31.2" cy="31.9" r="2.4"/>
			<path style="fill:#FFFFFF;" d="M29.4,24h-3c-1.7,0-3.1-1.4-3.1-3.1v-0.2c0-1.7,1.3-3.1,3.1-3.1h3c1.7,0,3.1,1.3,3.1,3.1v0.2
				C32.4,22.6,31.1,24,29.4,24z"/>
		</g>
		<g>
			
				<linearGradient id="SVGID_9_" gradientUnits="userSpaceOnUse" x1="17.2758" y1="21.2041" x2="17.2758" y2="18.4184" gradientTransform="matrix(1 0 0 -1 0 42)">
				<stop  offset="0" style="stop-color:#4DB3FF"/>
				<stop  offset="1" style="stop-color:#0092FF"/>
			</linearGradient>
			<circle style="fill:url(#SVGID_9_);" cx="17.3" cy="22.2" r="1.4"/>
			
				<linearGradient id="SVGID_10_" gradientUnits="userSpaceOnUse" x1="20.7258" y1="20.8061" x2="20.7258" y2="18.8163" gradientTransform="matrix(1 0 0 -1 0 42)">
				<stop  offset="0" style="stop-color:#4DB3FF"/>
				<stop  offset="1" style="stop-color:#0092FF"/>
			</linearGradient>
			<circle style="fill:url(#SVGID_10_);" cx="20.7" cy="22.2" r="1"/>
			
				<linearGradient id="SVGID_11_" gradientUnits="userSpaceOnUse" x1="13.9008" y1="20.8061" x2="13.9008" y2="18.8163" gradientTransform="matrix(1 0 0 -1 0 42)">
				<stop  offset="0" style="stop-color:#4DB3FF"/>
				<stop  offset="1" style="stop-color:#0092FF"/>
			</linearGradient>
			<circle style="fill:url(#SVGID_11_);" cx="13.9" cy="22.2" r="1"/>
		</g>
	</g>
</g>
</svg>
